<?xml version="1.0" encoding="UTF-8" standalone="no"?>
<!DOCTYPE svg PUBLIC "-//W3C//DTD SVG 1.1//EN"
 "http://www.w3.org/Graphics/SVG/1.1/DTD/svg11.dtd">
<!-- Generated by graphviz version 2.38.0 (20140413.2041)
 -->
<!-- Title: output Pages: 1 -->
<svg width="633pt" height="971pt"
 viewBox="0.00 0.00 633.00 971.00" xmlns="http://www.w3.org/2000/svg" xmlns:xlink="http://www.w3.org/1999/xlink">
<g id="graph0" class="graph" transform="scale(1 1) rotate(0) translate(4 967)">
<title>output</title>
<polygon fill="white" stroke="none" points="-4,4 -4,-967 629,-967 629,4 -4,4"/>
<!-- Legend -->
<g id="node1" class="node"><title>Legend</title>
<polygon fill="#e0e0e0" stroke="none" points="8.5,-908.5 8.5,-931.5 209.5,-931.5 209.5,-908.5 8.5,-908.5"/>
<polygon fill="none" stroke="black" points="8.5,-908.5 8.5,-931.5 209.5,-931.5 209.5,-908.5 8.5,-908.5"/>
<text text-anchor="start" x="93" y="-916.3" font-family="Times,serif" font-size="14.00">Layer</text>
<polygon fill="#88ffff" stroke="none" points="8.5,-870.5 8.5,-908.5 89.5,-908.5 89.5,-870.5 8.5,-870.5"/>
<polygon fill="none" stroke="black" points="8.5,-870.5 8.5,-908.5 89.5,-908.5 89.5,-870.5 8.5,-870.5"/>
<text text-anchor="start" x="12.5" y="-893.3" font-family="Times,serif" font-size="14.00"> Complexity </text>
<text text-anchor="start" x="15" y="-878.3" font-family="Times,serif" font-size="14.00"> (MFLOPs) </text>
<polygon fill="#ff88ff" stroke="none" points="89.5,-870.5 89.5,-908.5 164.5,-908.5 164.5,-870.5 89.5,-870.5"/>
<polygon fill="none" stroke="black" points="89.5,-870.5 89.5,-908.5 164.5,-908.5 164.5,-870.5 89.5,-870.5"/>
<text text-anchor="start" x="93.5" y="-893.3" font-family="Times,serif" font-size="14.00"> Bandwidth </text>
<text text-anchor="start" x="103" y="-878.3" font-family="Times,serif" font-size="14.00"> (MB/s) </text>
<polygon fill="#ffff88" stroke="none" points="164.5,-870.5 164.5,-908.5 209.5,-908.5 209.5,-870.5 164.5,-870.5"/>
<polygon fill="none" stroke="black" points="164.5,-870.5 164.5,-908.5 209.5,-908.5 209.5,-870.5 164.5,-870.5"/>
<text text-anchor="start" x="168.5" y="-893.3" font-family="Times,serif" font-size="14.00"> Time </text>
<text text-anchor="start" x="172" y="-878.3" font-family="Times,serif" font-size="14.00"> (ms)</text>
</g>
<!-- Input -->
<g id="node2" class="node"><title>Input</title>
<ellipse fill="none" stroke="black" cx="320.5" cy="-901.5" rx="85.2851" ry="18"/>
<text text-anchor="middle" x="320.5" y="-897.8" font-family="Times,serif" font-size="14.00">input: (1, 80, 160, 3)</text>
</g>
<!-- Relu -->
<g id="node3" class="node"><title>Relu</title>
<polygon fill="#a3a3a3" stroke="none" points="232.5,-777 232.5,-800 408.5,-800 408.5,-777 232.5,-777"/>
<polygon fill="none" stroke="black" points="232.5,-777 232.5,-800 408.5,-800 408.5,-777 232.5,-777"/>
<text text-anchor="start" x="307.5" y="-784.8" font-family="Times,serif" font-size="14.00">Relu</text>
<polygon fill="#dddddd" stroke="none" points="232.5,-754 232.5,-777 408.5,-777 408.5,-754 232.5,-754"/>
<polygon fill="none" stroke="black" points="232.5,-754 232.5,-777 408.5,-777 408.5,-754 232.5,-754"/>
<text text-anchor="start" x="288" y="-761.8" font-family="Times,serif" font-size="14.00">(16, 80, 40)</text>
<polygon fill="#50d9d0" stroke="none" points="232.5,-716 232.5,-754 308.5,-754 308.5,-716 232.5,-716"/>
<polygon fill="none" stroke="black" points="232.5,-716 232.5,-754 308.5,-754 308.5,-716 232.5,-716"/>
<text text-anchor="start" x="244.5" y="-738.8" font-family="Times,serif" font-size="14.00"> 15.0528 </text>
<text text-anchor="start" x="236.5" y="-723.8" font-family="Times,serif" font-size="14.00"> (MFLOPs) </text>
<polygon fill="#b1179d" stroke="none" points="308.5,-716 308.5,-754 368.5,-754 368.5,-716 308.5,-716"/>
<polygon fill="none" stroke="black" points="308.5,-716 308.5,-754 368.5,-754 368.5,-716 308.5,-716"/>
<text text-anchor="start" x="312.5" y="-738.8" font-family="Times,serif" font-size="14.00"> 3842.20 </text>
<text text-anchor="start" x="314.5" y="-723.8" font-family="Times,serif" font-size="14.00"> (MB/s) </text>
<polygon fill="#ffff8d" stroke="none" points="368.5,-716 368.5,-754 408.5,-754 408.5,-716 368.5,-716"/>
<polygon fill="none" stroke="black" points="368.5,-716 368.5,-754 408.5,-754 408.5,-716 368.5,-716"/>
<text text-anchor="start" x="372.5" y="-738.8" font-family="Times,serif" font-size="14.00"> 0.94 </text>
<text text-anchor="start" x="373.5" y="-723.8" font-family="Times,serif" font-size="14.00"> (ms)</text>
</g>
<!-- Input&#45;&gt;Relu -->
<g id="edge1" class="edge"><title>Input&#45;&gt;Relu</title>
<path fill="none" stroke="black" d="M320.5,-883.432C320.5,-866.247 320.5,-838.812 320.5,-814.07"/>
<polygon fill="black" stroke="black" points="324,-814.031 320.5,-804.031 317,-814.031 324,-814.031"/>
</g>
<!-- Relu_1 -->
<g id="node4" class="node"><title>Relu_1</title>
<polygon fill="#a3a3a3" stroke="none" points="232.5,-649 232.5,-672 408.5,-672 408.5,-649 232.5,-649"/>
<polygon fill="none" stroke="black" points="232.5,-649 232.5,-672 408.5,-672 408.5,-649 232.5,-649"/>
<text text-anchor="start" x="300.5" y="-656.8" font-family="Times,serif" font-size="14.00">Relu_1</text>
<polygon fill="#dddddd" stroke="none" points="232.5,-626 232.5,-649 408.5,-649 408.5,-626 232.5,-626"/>
<polygon fill="none" stroke="black" points="232.5,-626 232.5,-649 408.5,-649 408.5,-626 232.5,-626"/>
<text text-anchor="start" x="288" y="-633.8" font-family="Times,serif" font-size="14.00">(32, 40, 20)</text>
<polygon fill="#2ed1c6" stroke="none" points="232.5,-588 232.5,-626 308.5,-626 308.5,-588 232.5,-588"/>
<polygon fill="none" stroke="black" points="232.5,-588 232.5,-626 308.5,-626 308.5,-588 232.5,-588"/>
<text text-anchor="start" x="251" y="-610.8" font-family="Times,serif" font-size="14.00"> 20.48 </text>
<text text-anchor="start" x="236.5" y="-595.8" font-family="Times,serif" font-size="14.00"> (MFLOPs) </text>
<polygon fill="#ca59bc" stroke="none" points="308.5,-588 308.5,-626 368.5,-626 368.5,-588 308.5,-588"/>
<polygon fill="none" stroke="black" points="308.5,-588 308.5,-626 368.5,-626 368.5,-588 308.5,-588"/>
<text text-anchor="start" x="312.5" y="-610.8" font-family="Times,serif" font-size="14.00"> 2651.28 </text>
<text text-anchor="start" x="314.5" y="-595.8" font-family="Times,serif" font-size="14.00"> (MB/s) </text>
<polygon fill="#ffff8e" stroke="none" points="368.5,-588 368.5,-626 408.5,-626 408.5,-588 368.5,-588"/>
<polygon fill="none" stroke="black" points="368.5,-588 368.5,-626 408.5,-626 408.5,-588 368.5,-588"/>
<text text-anchor="start" x="372.5" y="-610.8" font-family="Times,serif" font-size="14.00"> 0.93 </text>
<text text-anchor="start" x="373.5" y="-595.8" font-family="Times,serif" font-size="14.00"> (ms)</text>
</g>
<!-- Relu&#45;&gt;Relu_1 -->
<g id="edge2" class="edge"><title>Relu&#45;&gt;Relu_1</title>
<path fill="none" stroke="black" d="M320.5,-711.867C320.5,-703.634 320.5,-694.957 320.5,-686.465"/>
<polygon fill="black" stroke="black" points="324,-686.241 320.5,-676.241 317,-686.241 324,-686.241"/>
</g>
<!-- Relu_2 -->
<g id="node5" class="node"><title>Relu_2</title>
<polygon fill="#a3a3a3" stroke="none" points="232.5,-521 232.5,-544 408.5,-544 408.5,-521 232.5,-521"/>
<polygon fill="none" stroke="black" points="232.5,-521 232.5,-544 408.5,-544 408.5,-521 232.5,-521"/>
<text text-anchor="start" x="300.5" y="-528.8" font-family="Times,serif" font-size="14.00">Relu_2</text>
<polygon fill="#dddddd" stroke="none" points="232.5,-498 232.5,-521 408.5,-521 408.5,-498 232.5,-498"/>
<polygon fill="none" stroke="black" points="232.5,-498 232.5,-521 408.5,-521 408.5,-498 232.5,-498"/>
<text text-anchor="start" x="288" y="-505.8" font-family="Times,serif" font-size="14.00">(64, 20, 10)</text>
<polygon fill="#2ed1c6" stroke="none" points="232.5,-460 232.5,-498 308.5,-498 308.5,-460 232.5,-460"/>
<polygon fill="none" stroke="black" points="232.5,-460 232.5,-498 308.5,-498 308.5,-460 232.5,-460"/>
<text text-anchor="start" x="251" y="-482.8" font-family="Times,serif" font-size="14.00"> 20.48 </text>
<text text-anchor="start" x="236.5" y="-467.8" font-family="Times,serif" font-size="14.00"> (MFLOPs) </text>
<polygon fill="#e8a8e0" stroke="none" points="308.5,-460 308.5,-498 368.5,-498 368.5,-460 308.5,-460"/>
<polygon fill="none" stroke="black" points="308.5,-460 308.5,-498 368.5,-498 368.5,-460 308.5,-460"/>
<text text-anchor="start" x="312.5" y="-482.8" font-family="Times,serif" font-size="14.00"> 1232.48 </text>
<text text-anchor="start" x="314.5" y="-467.8" font-family="Times,serif" font-size="14.00"> (MB/s) </text>
<polygon fill="#ffff84" stroke="none" points="368.5,-460 368.5,-498 408.5,-498 408.5,-460 368.5,-460"/>
<polygon fill="none" stroke="black" points="368.5,-460 368.5,-498 408.5,-498 408.5,-460 368.5,-460"/>
<text text-anchor="start" x="372.5" y="-482.8" font-family="Times,serif" font-size="14.00"> 1.07 </text>
<text text-anchor="start" x="373.5" y="-467.8" font-family="Times,serif" font-size="14.00"> (ms)</text>
</g>
<!-- Relu_1&#45;&gt;Relu_2 -->
<g id="edge3" class="edge"><title>Relu_1&#45;&gt;Relu_2</title>
<path fill="none" stroke="black" d="M320.5,-583.867C320.5,-575.634 320.5,-566.957 320.5,-558.465"/>
<polygon fill="black" stroke="black" points="324,-558.241 320.5,-548.241 317,-558.241 324,-558.241"/>
</g>
<!-- Relu_3 -->
<g id="node6" class="node"><title>Relu_3</title>
<polygon fill="#a3a3a3" stroke="none" points="234.5,-393 234.5,-416 406.5,-416 406.5,-393 234.5,-393"/>
<polygon fill="none" stroke="black" points="234.5,-393 234.5,-416 406.5,-416 406.5,-393 234.5,-393"/>
<text text-anchor="start" x="300.5" y="-400.8" font-family="Times,serif" font-size="14.00">Relu_3</text>
<polygon fill="#dddddd" stroke="none" points="234.5,-370 234.5,-393 406.5,-393 406.5,-370 234.5,-370"/>
<polygon fill="none" stroke="black" points="234.5,-370 234.5,-393 406.5,-393 406.5,-370 234.5,-370"/>
<text text-anchor="start" x="291.5" y="-377.8" font-family="Times,serif" font-size="14.00">(64, 10, 5)</text>
<polygon fill="#6fe1da" stroke="none" points="234.5,-332 234.5,-370 310.5,-370 310.5,-332 234.5,-332"/>
<polygon fill="none" stroke="black" points="234.5,-332 234.5,-370 310.5,-370 310.5,-332 234.5,-332"/>
<text text-anchor="start" x="253" y="-354.8" font-family="Times,serif" font-size="14.00"> 10.24 </text>
<text text-anchor="start" x="238.5" y="-339.8" font-family="Times,serif" font-size="14.00"> (MFLOPs) </text>
<polygon fill="#f2c2ec" stroke="none" points="310.5,-332 310.5,-370 366.5,-370 366.5,-332 310.5,-332"/>
<polygon fill="none" stroke="black" points="310.5,-332 310.5,-370 366.5,-370 366.5,-332 310.5,-332"/>
<text text-anchor="start" x="315.5" y="-354.8" font-family="Times,serif" font-size="14.00"> 756.52 </text>
<text text-anchor="start" x="314.5" y="-339.8" font-family="Times,serif" font-size="14.00"> (MB/s) </text>
<polygon fill="#ffff84" stroke="none" points="366.5,-332 366.5,-370 406.5,-370 406.5,-332 366.5,-332"/>
<polygon fill="none" stroke="black" points="366.5,-332 366.5,-370 406.5,-370 406.5,-332 366.5,-332"/>
<text text-anchor="start" x="370.5" y="-354.8" font-family="Times,serif" font-size="14.00"> 1.07 </text>
<text text-anchor="start" x="371.5" y="-339.8" font-family="Times,serif" font-size="14.00"> (ms)</text>
</g>
<!-- Relu_2&#45;&gt;Relu_3 -->
<g id="edge4" class="edge"><title>Relu_2&#45;&gt;Relu_3</title>
<path fill="none" stroke="black" d="M320.5,-455.867C320.5,-447.634 320.5,-438.957 320.5,-430.465"/>
<polygon fill="black" stroke="black" points="324,-430.241 320.5,-420.241 317,-430.241 324,-430.241"/>
</g>
<!-- Relu_4 -->
<g id="node7" class="node"><title>Relu_4</title>
<polygon fill="#a3a3a3" stroke="none" points="232.5,-265 232.5,-288 408.5,-288 408.5,-265 232.5,-265"/>
<polygon fill="none" stroke="black" points="232.5,-265 232.5,-288 408.5,-288 408.5,-265 232.5,-265"/>
<text text-anchor="start" x="300.5" y="-272.8" font-family="Times,serif" font-size="14.00">Relu_4</text>
<polygon fill="#dddddd" stroke="none" points="232.5,-242 232.5,-265 408.5,-265 408.5,-242 232.5,-242"/>
<polygon fill="none" stroke="black" points="232.5,-242 232.5,-265 408.5,-265 408.5,-242 232.5,-242"/>
<text text-anchor="start" x="288" y="-249.8" font-family="Times,serif" font-size="14.00">(1024, 1, 1)</text>
<polygon fill="#87e6e1" stroke="none" points="232.5,-204 232.5,-242 308.5,-242 308.5,-204 232.5,-204"/>
<polygon fill="none" stroke="black" points="232.5,-204 232.5,-242 308.5,-242 308.5,-204 232.5,-204"/>
<text text-anchor="start" x="247.5" y="-226.8" font-family="Times,serif" font-size="14.00"> 6.5536 </text>
<text text-anchor="start" x="236.5" y="-211.8" font-family="Times,serif" font-size="14.00"> (MFLOPs) </text>
<polygon fill="#d577c9" stroke="none" points="308.5,-204 308.5,-242 368.5,-242 368.5,-204 308.5,-204"/>
<polygon fill="none" stroke="black" points="308.5,-204 308.5,-242 368.5,-242 368.5,-204 308.5,-204"/>
<text text-anchor="start" x="312.5" y="-226.8" font-family="Times,serif" font-size="14.00"> 2111.32 </text>
<text text-anchor="start" x="314.5" y="-211.8" font-family="Times,serif" font-size="14.00"> (MB/s) </text>
<polygon fill="#ffff00" stroke="none" points="368.5,-204 368.5,-242 408.5,-242 408.5,-204 368.5,-204"/>
<polygon fill="none" stroke="black" points="368.5,-204 368.5,-242 408.5,-242 408.5,-204 368.5,-204"/>
<text text-anchor="start" x="372.5" y="-226.8" font-family="Times,serif" font-size="14.00"> 2.96 </text>
<text text-anchor="start" x="373.5" y="-211.8" font-family="Times,serif" font-size="14.00"> (ms)</text>
</g>
<!-- Relu_3&#45;&gt;Relu_4 -->
<g id="edge5" class="edge"><title>Relu_3&#45;&gt;Relu_4</title>
<path fill="none" stroke="black" d="M320.5,-327.867C320.5,-319.634 320.5,-310.957 320.5,-302.465"/>
<polygon fill="black" stroke="black" points="324,-302.241 320.5,-292.241 317,-302.241 324,-302.241"/>
</g>
<!-- add_5 -->
<g id="node8" class="node"><title>add_5</title>
<polygon fill="#a3a3a3" stroke="none" points="234.5,-137 234.5,-160 406.5,-160 406.5,-137 234.5,-137"/>
<polygon fill="none" stroke="black" points="234.5,-137 234.5,-160 406.5,-160 406.5,-137 234.5,-137"/>
<text text-anchor="start" x="303.5" y="-144.8" font-family="Times,serif" font-size="14.00">add_5</text>
<polygon fill="#dddddd" stroke="none" points="234.5,-114 234.5,-137 406.5,-137 406.5,-114 234.5,-114"/>
<polygon fill="none" stroke="black" points="234.5,-114 234.5,-137 406.5,-137 406.5,-114 234.5,-114"/>
<text text-anchor="start" x="298" y="-121.8" font-family="Times,serif" font-size="14.00">(2, 1, 1)</text>
<polygon fill="#b1f1ef" stroke="none" points="234.5,-76 234.5,-114 310.5,-114 310.5,-76 234.5,-76"/>
<polygon fill="none" stroke="black" points="234.5,-76 234.5,-114 310.5,-114 310.5,-76 234.5,-76"/>
<text text-anchor="start" x="243" y="-98.8" font-family="Times,serif" font-size="14.00"> 0.004096 </text>
<text text-anchor="start" x="238.5" y="-83.8" font-family="Times,serif" font-size="14.00"> (MFLOPs) </text>
<polygon fill="#fee4fb" stroke="none" points="310.5,-76 310.5,-114 366.5,-114 366.5,-76 310.5,-76"/>
<polygon fill="none" stroke="black" points="310.5,-76 310.5,-114 366.5,-114 366.5,-76 310.5,-76"/>
<text text-anchor="start" x="315.5" y="-98.8" font-family="Times,serif" font-size="14.00"> 135.07 </text>
<text text-anchor="start" x="314.5" y="-83.8" font-family="Times,serif" font-size="14.00"> (MB/s) </text>
<polygon fill="#ffffcc" stroke="none" points="366.5,-76 366.5,-114 406.5,-114 406.5,-76 366.5,-76"/>
<polygon fill="none" stroke="black" points="366.5,-76 366.5,-114 406.5,-114 406.5,-76 366.5,-76"/>
<text text-anchor="start" x="370.5" y="-98.8" font-family="Times,serif" font-size="14.00"> 0.04 </text>
<text text-anchor="start" x="371.5" y="-83.8" font-family="Times,serif" font-size="14.00"> (ms)</text>
</g>
<!-- Relu_4&#45;&gt;add_5 -->
<g id="edge6" class="edge"><title>Relu_4&#45;&gt;add_5</title>
<path fill="none" stroke="black" d="M320.5,-199.867C320.5,-191.634 320.5,-182.957 320.5,-174.465"/>
<polygon fill="black" stroke="black" points="324,-174.241 320.5,-164.241 317,-174.241 324,-174.241"/>
</g>
<!-- Output -->
<g id="node9" class="node"><title>Output</title>
<ellipse fill="none" stroke="black" cx="320.5" cy="-18" rx="66.8882" ry="18"/>
<text text-anchor="middle" x="320.5" y="-14.3" font-family="Times,serif" font-size="14.00">output: [1, 1, 2]</text>
</g>
<!-- add_5&#45;&gt;Output -->
<g id="edge7" class="edge"><title>add_5&#45;&gt;Output</title>
<path fill="none" stroke="black" d="M320.5,-71.7292C320.5,-63.0404 320.5,-54.1943 320.5,-46.2922"/>
<polygon fill="black" stroke="black" points="324,-46.2052 320.5,-36.2053 317,-46.2053 324,-46.2052"/>
</g>
<!-- Summary -->
<g id="node10" class="node"><title>Summary</title>
<polygon fill="#c60000" stroke="none" points="432.5,-935.5 432.5,-958.5 617.5,-958.5 617.5,-935.5 432.5,-935.5"/>
<polygon fill="none" stroke="black" points="432.5,-935.5 432.5,-958.5 617.5,-958.5 617.5,-935.5 432.5,-935.5"/>
<text text-anchor="start" x="497.5" y="-943.3" font-family="Times,serif" font-size="14.00">Summary</text>
<polygon fill="#e2e2e2" stroke="none" points="432.5,-912.5 432.5,-935.5 617.5,-935.5 617.5,-912.5 432.5,-912.5"/>
<polygon fill="none" stroke="black" points="432.5,-912.5 432.5,-935.5 617.5,-935.5 617.5,-912.5 432.5,-912.5"/>
<text text-anchor="start" x="472" y="-920.3" font-family="Times,serif" font-size="14.00">12 SHV Processors</text>
<polygon fill="#dadada" stroke="none" points="432.5,-889.5 432.5,-912.5 617.5,-912.5 617.5,-889.5 432.5,-889.5"/>
<polygon fill="none" stroke="black" points="432.5,-889.5 432.5,-912.5 617.5,-912.5 617.5,-889.5 432.5,-889.5"/>
<text text-anchor="start" x="461" y="-897.3" font-family="Times,serif" font-size="14.00">Inference time 7.01 ms</text>
<polygon fill="#e2e2e2" stroke="none" points="432.5,-866.5 432.5,-889.5 617.5,-889.5 617.5,-866.5 432.5,-866.5"/>
<polygon fill="none" stroke="black" points="432.5,-866.5 432.5,-889.5 617.5,-889.5 617.5,-866.5 432.5,-866.5"/>
<text text-anchor="start" x="448" y="-874.3" font-family="Times,serif" font-size="14.00">Bandwidth 2060.80 MB/sec</text>
<polygon fill="#dadada" stroke="none" points="432.5,-843.5 432.5,-866.5 617.5,-866.5 617.5,-843.5 432.5,-843.5"/>
<polygon fill="none" stroke="black" points="432.5,-843.5 432.5,-866.5 617.5,-866.5 617.5,-843.5 432.5,-843.5"/>
<text text-anchor="start" x="436.5" y="-851.3" font-family="Times,serif" font-size="14.00">This network is Compute bound</text>
</g>
</g>
</svg>
